<?xml version="1.0" encoding="UTF-8"?>
<svg id="Camada_1" xmlns="http://www.w3.org/2000/svg" version="1.1" viewBox="0 0 199.58 46.54">
  <!-- Generator: Adobe Illustrator 30.4.0, SVG Export Plug-In . SVG Version: 2.1.4 Build 226)  -->
  <defs>
    <style>
      .st0 {
        letter-spacing: .55em;
      }

      .st1 {
        font-size: 24px;
      }

      .st2 {
        letter-spacing: .01em;
      }

      .st3 {
        font-family: HelveticaNeueCyr-Bold, HelveticaNeueCyr;
        font-weight: 700;
      }

      .st4 {
        font-family: HelveticaNeueCyr-Thin, HelveticaNeueCyr;
        font-weight: 200;
      }
    </style>
  </defs>
  <text class="st1" transform="translate(88.85 20.4)"><tspan class="st3"><tspan class="st0" x="0" y="0">COO</tspan><tspan x="94.72" y="0">P</tspan></tspan><tspan class="st4"><tspan class="st2" x="0" y="21">FINANCE</tspan><tspan x="95.6" y="21">S</tspan></tspan></text>
  <g>
    <path d="M37.2,38.5l-34.48.02c-.04-.38.04-.84.21-1.16l3.92-7.52h38.17c.84,0,1.74-.69,2.19-1.28l3.18-4.15c.96-1.24,2.63-1.81,4.15-1.91l12.86.05-4.34,8.48h-16.18c-.86.14-1.85.42-2.37,1.09l-3.65,4.67c-.78,1-2.2,1.71-3.67,1.71Z"/>
    <path d="M69.1,19.29h-25.26c-1.44-.15-2.76-.75-3.62-1.88l-3.06-4.05c-.49-.65-1.37-1.39-2.24-1.39l-18.88-.05,4.35-8.59h6.53c1.7.15,3.25.63,4.31,2.01l3.08,4.01c.82,1.06,2.06,1.54,3.47,1.41h35.59s-4.27,8.53-4.27,8.53Z"/>
  </g>
</svg>