<?xml version="1.0" encoding="UTF-8"?>
<svg id="Camada_1" xmlns="http://www.w3.org/2000/svg" version="1.1" viewBox="0 0 18.38 19.07">
  <!-- Generator: Adobe Illustrator 30.4.0, SVG Export Plug-In . SVG Version: 2.1.4 Build 226)  -->
  <defs>
    <style>
      .st0 {
        fill: #fffaf0;
      }
    </style>
  </defs>
  <path class="st0" d="M11.69,4.34l.62,1.67c.69,1.87,2.17,3.35,4.04,4.04l1.67.62c.49.18.49.88,0,1.07l-1.67.62c-1.87.69-3.35,2.17-4.04,4.04l-.62,1.67c-.18.49-.88.49-1.07,0l-.62-1.67c-.69-1.87-2.17-3.35-4.04-4.04l-1.67-.62c-.49-.18-.49-.88,0-1.07l1.67-.62c1.87-.69,3.35-2.17,4.04-4.04l.62-1.67c.18-.49.88-.49,1.07,0Z"/>
  <path class="st0" d="M6.25,13.84l.05.13c.36.96,1.11,1.72,2.07,2.07l.13.05c.25.09.25.45,0,.55l-.13.05c-.96.36-1.72,1.11-2.07,2.07l-.05.13c-.09.25-.45.25-.55,0l-.05-.13c-.36-.96-1.11-1.72-2.07-2.07l-.13-.05c-.25-.09-.25-.45,0-.55l.13-.05c.96-.36,1.72-1.11,2.07-2.07l.05-.13c.09-.25.45-.25.55,0Z"/>
  <path class="st0" d="M4.94.3l.15.41c.55,1.5,1.73,2.68,3.23,3.23l.41.15c.4.15.4.7,0,.85l-.41.15c-1.5.55-2.68,1.73-3.23,3.23l-.15.41c-.15.4-.7.4-.85,0l-.15-.41c-.55-1.5-1.73-2.68-3.23-3.23l-.41-.15c-.4-.15-.4-.7,0-.85l.41-.15c1.5-.55,2.68-1.73,3.23-3.23l.15-.41c.15-.4.7-.4.85,0Z"/>
</svg>